<svg width="24" height="24" viewBox="0 0 24 24" fill="none" xmlns="http://www.w3.org/2000/svg">
<g id="document 1">
<path id="Vector" d="M8.5 9H10.5C10.7761 9 11 8.77612 11 8.5C11 8.22388 10.7761 8 10.5 8H8.5C8.22388 8 8 8.22388 8 8.5C8 8.77612 8.22388 9 8.5 9ZM19.9611 8.3075C19.9357 8.24677 19.8991 8.19202 19.8532 8.14618L13.8538 2.14679C13.808 2.10089 13.7532 2.06427 13.6925 2.03888C13.632 2.01361 13.5668 2 13.5 2H7C5.34387 2.00183 4.00183 3.34387 4 5V19C4.00183 20.6561 5.34387 21.9982 7 22H17C18.6561 21.9982 19.9982 20.6561 20 19V8.5C20 8.43323 19.9864 8.36798 19.9611 8.3075ZM14 3.70697L18.293 8H15.333C14.597 7.99939 14.0006 7.40295 14 6.66699V3.70697ZM19 19C18.9986 20.104 18.104 20.9986 17 21H7C5.896 20.9986 5.0014 20.104 5 19V5C5.0014 3.896 5.896 3.0014 7 3H13V6.66699C13.0016 7.95477 14.0452 8.99835 15.333 9H19V19ZM8 12.5C8 12.7761 8.22388 13 8.5 13H15.5C15.7761 13 16 12.7761 16 12.5C16 12.2239 15.7761 12 15.5 12H8.5C8.22388 12 8 12.2239 8 12.5ZM15.5 16H8.5C8.22388 16 8 16.2239 8 16.5C8 16.7761 8.22388 17 8.5 17H15.5C15.7761 17 16 16.7761 16 16.5C16 16.2239 15.7761 16 15.5 16Z" fill="#3F3F95"/>
</g>
</svg>
