<svg width="24" height="24" viewBox="0 0 24 24" fill="none" xmlns="http://www.w3.org/2000/svg">
<path fill-rule="evenodd" clip-rule="evenodd" d="M7.50002 4.75C7.50002 4.531 9.75802 3 12 3C14.242 3 16.5 4.5315 16.5 4.75C16.5 5.53 16.417 5.992 16.347 6.2435C16.3005 6.4085 16.146 6.5 15.9745 6.5H8.02552C7.85402 6.5 7.69952 6.4085 7.65302 6.2435C7.58302 5.992 7.50002 5.53 7.50002 4.75ZM11.25 4.5C11.1174 4.5 10.9902 4.55268 10.8965 4.64645C10.8027 4.74021 10.75 4.86739 10.75 5C10.75 5.13261 10.8027 5.25979 10.8965 5.35355C10.9902 5.44732 11.1174 5.5 11.25 5.5H12.75C12.8826 5.5 13.0098 5.44732 13.1036 5.35355C13.1973 5.25979 13.25 5.13261 13.25 5C13.25 4.86739 13.1973 4.74021 13.1036 4.64645C13.0098 4.55268 12.8826 4.5 12.75 4.5H11.25ZM8.01902 9.609C6.35402 9.094 6.77402 8.174 7.40902 7.5H16.73C17.238 8.149 17.5105 9.0245 15.975 9.5485C16.0378 10.1055 15.9828 10.6695 15.8136 11.2039C15.6443 11.7383 15.3647 12.2311 14.9928 12.6505C14.6208 13.0698 14.1649 13.4064 13.6546 13.6382C13.1442 13.87 12.5909 13.992 12.0303 13.9962C11.4698 14.0005 10.9147 13.8868 10.4009 13.6627C9.8871 13.4386 9.42616 13.109 9.04794 12.6953C8.66973 12.2816 8.38269 11.793 8.20543 11.2613C8.02818 10.7295 7.96467 10.1664 8.01902 9.6085V9.609ZM11.864 10C13.185 10 14.209 9.93 14.994 9.808C15.0198 10.2157 14.9621 10.6243 14.8244 11.0089C14.6867 11.3934 14.4719 11.7458 14.1932 12.0444C13.9145 12.3431 13.5778 12.5816 13.2036 12.7455C12.8294 12.9094 12.4258 12.9951 12.0173 12.9975C11.6088 12.9998 11.2042 12.9187 10.8282 12.7592C10.4521 12.5996 10.1127 12.365 9.83053 12.0696C9.54841 11.7742 9.32958 11.4243 9.18745 11.0413C9.04533 10.6584 8.98291 10.2504 9.00402 9.8425C9.73552 9.9435 10.673 10 11.864 10ZM16.2085 17.3C15.7563 16.5944 15.1337 16.0139 14.3983 15.612C13.6629 15.2101 12.8381 14.9996 12 15C11.1616 14.9995 10.3365 15.2099 9.60073 15.6121C8.865 16.0142 8.24231 16.595 7.79002 17.301C7.62216 17.0425 7.36436 16.8554 7.06652 16.776L6.10052 16.5175C5.78034 16.4317 5.43917 16.4765 5.15206 16.6422C4.86495 16.8079 4.6554 17.0808 4.56952 17.401L4.18152 18.85C4.13902 19.0086 4.12818 19.174 4.14961 19.3367C4.17104 19.4995 4.22432 19.6564 4.30641 19.7986C4.3885 19.9408 4.49779 20.0654 4.62803 20.1653C4.75828 20.2652 4.90694 20.3385 5.06552 20.381L6.03102 20.64C6.19342 20.6837 6.363 20.6942 6.52953 20.6706C6.69607 20.6471 6.85611 20.5901 7.00002 20.503C7.00042 20.6356 7.05348 20.7626 7.14753 20.8561C7.24158 20.9496 7.36891 21.0019 7.50152 21.0015C7.63413 21.0011 7.76115 20.948 7.85463 20.854C7.94812 20.7599 8.00042 20.6326 8.00002 20.5V20C8.00002 19.8095 8.01352 19.622 8.03902 19.4385L10.641 20.136C10.7618 20.3945 10.9538 20.6132 11.1945 20.7665C11.4352 20.9197 11.7147 21.0011 12 21.0011C12.2854 21.0011 12.5648 20.9197 12.8055 20.7665C13.0462 20.6132 13.2382 20.3945 13.359 20.136L15.961 19.4385C15.9865 19.622 16 19.8095 16 20V20.5C15.9994 20.6326 16.0514 20.76 16.1447 20.8543C16.238 20.9485 16.3649 21.0018 16.4975 21.0025C16.6301 21.0032 16.7576 20.9511 16.8518 20.8578C16.946 20.7645 16.9994 20.6376 17 20.505C17.28 20.673 17.626 20.7315 17.9665 20.64L18.9325 20.3815C19.0911 20.339 19.2398 20.2657 19.37 20.1658C19.5003 20.0659 19.6095 19.9413 19.6916 19.7991C19.7737 19.6569 19.827 19.5 19.8484 19.3372C19.8699 19.1745 19.859 19.0091 19.8165 18.8505L19.428 17.4015C19.3421 17.0813 19.1326 16.8084 18.8455 16.6427C18.5584 16.477 18.2172 16.4322 17.897 16.518L16.931 16.7765C16.6339 16.8556 16.3765 17.0424 16.2085 17.3ZM8.30152 18.4735C8.57161 17.8203 9.00982 17.2502 9.5716 16.8212C10.1334 16.3922 10.7987 16.1196 11.5 16.031V18.0855C11.2759 18.165 11.0739 18.2965 10.9105 18.4692C10.7471 18.6419 10.627 18.8509 10.56 19.079L8.30152 18.474V18.4735ZM15.6985 18.4735C15.4284 17.8203 14.9902 17.2503 14.4284 16.8213C13.8666 16.3923 13.2013 16.1196 12.5 16.031V18.0855C12.952 18.2455 13.305 18.6155 13.44 19.079L15.6985 18.474V18.4735ZM12 20C12.1326 20 12.2598 19.9473 12.3536 19.8536C12.4473 19.7598 12.5 19.6326 12.5 19.5C12.5 19.3674 12.4473 19.2402 12.3536 19.1464C12.2598 19.0527 12.1326 19 12 19C11.8674 19 11.7402 19.0527 11.6465 19.1464C11.5527 19.2402 11.5 19.3674 11.5 19.5C11.5 19.6326 11.5527 19.7598 11.6465 19.8536C11.7402 19.9473 11.8674 20 12 20Z" fill="#0D47A1"/>
</svg>
